<?xml version="1.0" encoding="UTF-8" standalone="no"?>
<!DOCTYPE svg PUBLIC "-//W3C//DTD SVG 1.1//EN"
 "http://www.w3.org/Graphics/SVG/1.1/DTD/svg11.dtd">
<!-- Generated by graphviz version 2.40.1 (20161225.0304)
 -->
<!-- Title: %3 Pages: 1 -->
<svg width="500pt" height="1659pt"
 viewBox="0.00 0.00 500.09 1658.83" xmlns="http://www.w3.org/2000/svg" xmlns:xlink="http://www.w3.org/1999/xlink">
<g id="graph0" class="graph" transform="scale(1 1) rotate(0) translate(4 1654.827)">
<title>%3</title>
<polygon fill="#ffffff" stroke="transparent" points="-4,4 -4,-1654.827 496.0865,-1654.827 496.0865,4 -4,4"/>
<!-- 2593669538749480914 -->
<g id="node1" class="node">
<title>2593669538749480914</title>
<ellipse fill="none" stroke="#000000" cx="246.0433" cy="-1296.6424" rx="44.393" ry="44.393"/>
<text text-anchor="middle" x="246.0433" y="-1292.9424" font-family="Times,serif" font-size="14.00" fill="#000000">topk&#45;part</text>
</g>
<!-- 2366351458485269907 -->
<g id="node2" class="node">
<title>2366351458485269907</title>
<polygon fill="none" stroke="#000000" points="273.0433,-1412.8385 219.0433,-1412.8385 219.0433,-1376.8385 273.0433,-1376.8385 273.0433,-1412.8385"/>
<text text-anchor="middle" x="246.0433" y="-1391.1385" font-family="Times,serif" font-size="14.00" fill="#000000">0</text>
</g>
<!-- 2593669538749480914&#45;&gt;2366351458485269907 -->
<g id="edge1" class="edge">
<title>2593669538749480914&#45;&gt;2366351458485269907</title>
<path fill="none" stroke="#000000" d="M246.0433,-1340.857C246.0433,-1349.5365 246.0433,-1358.4215 246.0433,-1366.4127"/>
<polygon fill="#000000" stroke="#000000" points="242.5434,-1366.6525 246.0433,-1376.6525 249.5434,-1366.6526 242.5434,-1366.6525"/>
</g>
<!-- &#45;4484655302465458878 -->
<g id="node4" class="node">
<title>&#45;4484655302465458878</title>
<ellipse fill="none" stroke="#000000" cx="246.0433" cy="-1513.8328" rx="64.9885" ry="64.9885"/>
<text text-anchor="middle" x="246.0433" y="-1510.1328" font-family="Times,serif" font-size="14.00" fill="#000000">topk&#45;aggregate</text>
</g>
<!-- 2366351458485269907&#45;&gt;&#45;4484655302465458878 -->
<g id="edge4" class="edge">
<title>2366351458485269907&#45;&gt;&#45;4484655302465458878</title>
<path fill="none" stroke="#000000" d="M246.0433,-1412.9112C246.0433,-1420.1976 246.0433,-1429.1295 246.0433,-1438.6374"/>
<polygon fill="#000000" stroke="#000000" points="242.5434,-1438.7094 246.0433,-1448.7094 249.5434,-1438.7095 242.5434,-1438.7094"/>
</g>
<!-- 985019290357937263 -->
<g id="node3" class="node">
<title>985019290357937263</title>
<polygon fill="none" stroke="#000000" points="273.0433,-1216.4464 219.0433,-1216.4464 219.0433,-1180.4464 273.0433,-1180.4464 273.0433,-1216.4464"/>
<text text-anchor="middle" x="246.0433" y="-1194.7464" font-family="Times,serif" font-size="14.00" fill="#000000">0</text>
</g>
<!-- 985019290357937263&#45;&gt;2593669538749480914 -->
<g id="edge2" class="edge">
<title>985019290357937263&#45;&gt;2593669538749480914</title>
<path fill="none" stroke="#000000" d="M246.0433,-1216.457C246.0433,-1223.8573 246.0433,-1232.8582 246.0433,-1242.1198"/>
<polygon fill="#000000" stroke="#000000" points="242.5434,-1242.2085 246.0433,-1252.2085 249.5434,-1242.2085 242.5434,-1242.2085"/>
</g>
<!-- 4443850372186034563 -->
<g id="node5" class="node">
<title>4443850372186034563</title>
<polygon fill="none" stroke="#000000" points="273.0433,-1650.827 219.0433,-1650.827 219.0433,-1614.827 273.0433,-1614.827 273.0433,-1650.827"/>
<text text-anchor="middle" x="246.0433" y="-1629.127" font-family="Times,serif" font-size="14.00" fill="#000000">0</text>
</g>
<!-- &#45;4484655302465458878&#45;&gt;4443850372186034563 -->
<g id="edge3" class="edge">
<title>&#45;4484655302465458878&#45;&gt;4443850372186034563</title>
<path fill="none" stroke="#000000" d="M246.0433,-1578.9005C246.0433,-1587.7514 246.0433,-1596.4364 246.0433,-1604.1628"/>
<polygon fill="#000000" stroke="#000000" points="242.5434,-1604.3647 246.0433,-1614.3647 249.5434,-1604.3647 242.5434,-1604.3647"/>
</g>
<!-- &#45;5512354515211205516 -->
<g id="node6" class="node">
<title>&#45;5512354515211205516</title>
<ellipse fill="none" stroke="#000000" cx="132.0433" cy="-910.3576" rx="41.6928" ry="41.6928"/>
<text text-anchor="middle" x="132.0433" y="-906.6576" font-family="Times,serif" font-size="14.00" fill="#000000">foldby&#45;a</text>
</g>
<!-- &#45;6679037162082103747 -->
<g id="node7" class="node">
<title>&#45;6679037162082103747</title>
<polygon fill="none" stroke="#000000" points="180.0433,-1023.9539 126.0433,-1023.9539 126.0433,-987.9539 180.0433,-987.9539 180.0433,-1023.9539"/>
<text text-anchor="middle" x="153.0433" y="-1002.2539" font-family="Times,serif" font-size="14.00" fill="#000000">0</text>
</g>
<!-- &#45;5512354515211205516&#45;&gt;&#45;6679037162082103747 -->
<g id="edge5" class="edge">
<title>&#45;5512354515211205516&#45;&gt;&#45;6679037162082103747</title>
<path fill="none" stroke="#000000" d="M141.0101,-951.1763C142.9853,-960.1681 145.0346,-969.4968 146.87,-977.8522"/>
<polygon fill="#000000" stroke="#000000" points="143.4948,-978.8004 149.059,-987.8166 150.3318,-977.2985 143.4948,-978.8004"/>
</g>
<!-- 8031787998160498374 -->
<g id="node15" class="node">
<title>8031787998160498374</title>
<ellipse fill="none" stroke="#000000" cx="246.0433" cy="-1102.2001" rx="42.4939" ry="42.4939"/>
<text text-anchor="middle" x="246.0433" y="-1098.5001" font-family="Times,serif" font-size="14.00" fill="#000000">foldby&#45;b</text>
</g>
<!-- &#45;6679037162082103747&#45;&gt;8031787998160498374 -->
<g id="edge14" class="edge">
<title>&#45;6679037162082103747&#45;&gt;8031787998160498374</title>
<path fill="none" stroke="#000000" d="M170.5358,-1024.057C181.4571,-1035.3596 195.9328,-1050.3405 209.2862,-1064.16"/>
<polygon fill="#000000" stroke="#000000" points="207.0938,-1066.928 216.5596,-1071.6873 212.1278,-1062.0639 207.0938,-1066.928"/>
</g>
<!-- 796969776617795155 -->
<g id="node8" class="node">
<title>796969776617795155</title>
<polygon fill="none" stroke="#000000" points="146.0433,-832.7612 92.0433,-832.7612 92.0433,-796.7612 146.0433,-796.7612 146.0433,-832.7612"/>
<text text-anchor="middle" x="119.0433" y="-811.0612" font-family="Times,serif" font-size="14.00" fill="#000000">0</text>
</g>
<!-- 796969776617795155&#45;&gt;&#45;5512354515211205516 -->
<g id="edge6" class="edge">
<title>796969776617795155&#45;&gt;&#45;5512354515211205516</title>
<path fill="none" stroke="#000000" d="M121.5498,-833.1932C122.5684,-840.6839 123.8007,-849.7457 125.0574,-858.9866"/>
<polygon fill="#000000" stroke="#000000" points="121.6059,-859.5812 126.4216,-869.0183 128.5421,-858.6379 121.6059,-859.5812"/>
</g>
<!-- &#45;3188396821181695025 -->
<g id="node9" class="node">
<title>&#45;3188396821181695025</title>
<ellipse fill="none" stroke="#000000" cx="246.0433" cy="-910.3576" rx="41.6928" ry="41.6928"/>
<text text-anchor="middle" x="246.0433" y="-906.6576" font-family="Times,serif" font-size="14.00" fill="#000000">foldby&#45;a</text>
</g>
<!-- &#45;6679037162081021222 -->
<g id="node10" class="node">
<title>&#45;6679037162081021222</title>
<polygon fill="none" stroke="#000000" points="273.0433,-1023.9539 219.0433,-1023.9539 219.0433,-987.9539 273.0433,-987.9539 273.0433,-1023.9539"/>
<text text-anchor="middle" x="246.0433" y="-1002.2539" font-family="Times,serif" font-size="14.00" fill="#000000">1</text>
</g>
<!-- &#45;3188396821181695025&#45;&gt;&#45;6679037162081021222 -->
<g id="edge7" class="edge">
<title>&#45;3188396821181695025&#45;&gt;&#45;6679037162081021222</title>
<path fill="none" stroke="#000000" d="M246.0433,-952.0094C246.0433,-960.5881 246.0433,-969.4354 246.0433,-977.421"/>
<polygon fill="#000000" stroke="#000000" points="242.5434,-977.6703 246.0433,-987.6703 249.5434,-977.6704 242.5434,-977.6703"/>
</g>
<!-- &#45;6679037162081021222&#45;&gt;8031787998160498374 -->
<g id="edge12" class="edge">
<title>&#45;6679037162081021222&#45;&gt;8031787998160498374</title>
<path fill="none" stroke="#000000" d="M246.0433,-1024.057C246.0433,-1031.4951 246.0433,-1040.5261 246.0433,-1049.7709"/>
<polygon fill="#000000" stroke="#000000" points="242.5434,-1049.8209 246.0433,-1059.821 249.5434,-1049.821 242.5434,-1049.8209"/>
</g>
<!-- 796969776618877680 -->
<g id="node11" class="node">
<title>796969776618877680</title>
<polygon fill="none" stroke="#000000" points="273.0433,-832.7612 219.0433,-832.7612 219.0433,-796.7612 273.0433,-796.7612 273.0433,-832.7612"/>
<text text-anchor="middle" x="246.0433" y="-811.0612" font-family="Times,serif" font-size="14.00" fill="#000000">1</text>
</g>
<!-- 796969776618877680&#45;&gt;&#45;3188396821181695025 -->
<g id="edge8" class="edge">
<title>796969776618877680&#45;&gt;&#45;3188396821181695025</title>
<path fill="none" stroke="#000000" d="M246.0433,-833.1932C246.0433,-840.5254 246.0433,-849.3629 246.0433,-858.4001"/>
<polygon fill="#000000" stroke="#000000" points="242.5434,-858.6188 246.0433,-868.6188 249.5434,-858.6189 242.5434,-858.6188"/>
</g>
<!-- &#45;3356173692585666366 -->
<g id="node12" class="node">
<title>&#45;3356173692585666366</title>
<ellipse fill="none" stroke="#000000" cx="372.0433" cy="-910.3576" rx="41.6928" ry="41.6928"/>
<text text-anchor="middle" x="372.0433" y="-906.6576" font-family="Times,serif" font-size="14.00" fill="#000000">foldby&#45;a</text>
</g>
<!-- &#45;6679037162084268797 -->
<g id="node13" class="node">
<title>&#45;6679037162084268797</title>
<polygon fill="none" stroke="#000000" points="372.0433,-1023.9539 318.0433,-1023.9539 318.0433,-987.9539 372.0433,-987.9539 372.0433,-1023.9539"/>
<text text-anchor="middle" x="345.0433" y="-1002.2539" font-family="Times,serif" font-size="14.00" fill="#000000">2</text>
</g>
<!-- &#45;3356173692585666366&#45;&gt;&#45;6679037162084268797 -->
<g id="edge9" class="edge">
<title>&#45;3356173692585666366&#45;&gt;&#45;6679037162084268797</title>
<path fill="none" stroke="#000000" d="M360.6711,-950.6219C358.0686,-959.8363 355.3579,-969.4338 352.939,-977.998"/>
<polygon fill="#000000" stroke="#000000" points="349.5101,-977.2619 350.1602,-987.8368 356.2465,-979.1646 349.5101,-977.2619"/>
</g>
<!-- &#45;6679037162084268797&#45;&gt;8031787998160498374 -->
<g id="edge13" class="edge">
<title>&#45;6679037162084268797&#45;&gt;8031787998160498374</title>
<path fill="none" stroke="#000000" d="M326.4221,-1024.057C314.4978,-1035.6497 298.593,-1051.1121 284.0795,-1065.2219"/>
<polygon fill="#000000" stroke="#000000" points="281.3755,-1062.9692 276.6451,-1072.4495 286.255,-1067.9883 281.3755,-1062.9692"/>
</g>
<!-- 796969776619960205 -->
<g id="node14" class="node">
<title>796969776619960205</title>
<polygon fill="none" stroke="#000000" points="412.0433,-832.7612 358.0433,-832.7612 358.0433,-796.7612 412.0433,-796.7612 412.0433,-832.7612"/>
<text text-anchor="middle" x="385.0433" y="-811.0612" font-family="Times,serif" font-size="14.00" fill="#000000">2</text>
</g>
<!-- 796969776619960205&#45;&gt;&#45;3356173692585666366 -->
<g id="edge10" class="edge">
<title>796969776619960205&#45;&gt;&#45;3356173692585666366</title>
<path fill="none" stroke="#000000" d="M382.5367,-833.1932C381.5181,-840.6839 380.2858,-849.7457 379.0291,-858.9866"/>
<polygon fill="#000000" stroke="#000000" points="375.5444,-858.6379 377.6649,-869.0183 382.4806,-859.5812 375.5444,-858.6379"/>
</g>
<!-- 8031787998160498374&#45;&gt;985019290357937263 -->
<g id="edge11" class="edge">
<title>8031787998160498374&#45;&gt;985019290357937263</title>
<path fill="none" stroke="#000000" d="M246.0433,-1144.6953C246.0433,-1153.2812 246.0433,-1162.1095 246.0433,-1170.0665"/>
<polygon fill="#000000" stroke="#000000" points="242.5434,-1170.2725 246.0433,-1180.2725 249.5434,-1170.2725 242.5434,-1170.2725"/>
</g>
<!-- 4533706413804297362 -->
<g id="node16" class="node">
<title>4533706413804297362</title>
<ellipse fill="none" stroke="#000000" cx="103.0433" cy="-702.9164" rx="57.6901" ry="57.6901"/>
<text text-anchor="middle" x="103.0433" y="-699.2164" font-family="Times,serif" font-size="14.00" fill="#000000">filter&#45;lambda</text>
</g>
<!-- 4533706413804297362&#45;&gt;796969776617795155 -->
<g id="edge15" class="edge">
<title>4533706413804297362&#45;&gt;796969776617795155</title>
<path fill="none" stroke="#000000" d="M111.2776,-760.477C112.5621,-769.4557 113.8385,-778.3781 114.9742,-786.3173"/>
<polygon fill="#000000" stroke="#000000" points="111.5423,-787.0433 116.4233,-796.4469 118.4718,-786.052 111.5423,-787.0433"/>
</g>
<!-- 5740511739497968606 -->
<g id="node17" class="node">
<title>5740511739497968606</title>
<polygon fill="none" stroke="#000000" points="121.0433,-609.0715 67.0433,-609.0715 67.0433,-573.0715 121.0433,-573.0715 121.0433,-609.0715"/>
<text text-anchor="middle" x="94.0433" y="-587.3715" font-family="Times,serif" font-size="14.00" fill="#000000">0</text>
</g>
<!-- 5740511739497968606&#45;&gt;4533706413804297362 -->
<g id="edge16" class="edge">
<title>5740511739497968606&#45;&gt;4533706413804297362</title>
<path fill="none" stroke="#000000" d="M95.5294,-609.5404C96.1087,-616.7396 96.8114,-625.4714 97.5517,-634.6714"/>
<polygon fill="#000000" stroke="#000000" points="94.0748,-635.1008 98.3657,-644.7878 101.0523,-634.5393 94.0748,-635.1008"/>
</g>
<!-- 3441943171736921837 -->
<g id="node18" class="node">
<title>3441943171736921837</title>
<ellipse fill="none" stroke="#000000" cx="246.0433" cy="-702.9164" rx="57.6901" ry="57.6901"/>
<text text-anchor="middle" x="246.0433" y="-699.2164" font-family="Times,serif" font-size="14.00" fill="#000000">filter&#45;lambda</text>
</g>
<!-- 3441943171736921837&#45;&gt;796969776618877680 -->
<g id="edge17" class="edge">
<title>3441943171736921837&#45;&gt;796969776618877680</title>
<path fill="none" stroke="#000000" d="M246.0433,-760.8045C246.0433,-769.746 246.0433,-778.6204 246.0433,-786.5118"/>
<polygon fill="#000000" stroke="#000000" points="242.5434,-786.5776 246.0433,-796.5776 249.5434,-786.5776 242.5434,-786.5776"/>
</g>
<!-- 5740511739496886081 -->
<g id="node19" class="node">
<title>5740511739496886081</title>
<polygon fill="none" stroke="#000000" points="273.0433,-609.0715 219.0433,-609.0715 219.0433,-573.0715 273.0433,-573.0715 273.0433,-609.0715"/>
<text text-anchor="middle" x="246.0433" y="-587.3715" font-family="Times,serif" font-size="14.00" fill="#000000">1</text>
</g>
<!-- 5740511739496886081&#45;&gt;3441943171736921837 -->
<g id="edge18" class="edge">
<title>5740511739496886081&#45;&gt;3441943171736921837</title>
<path fill="none" stroke="#000000" d="M246.0433,-609.5404C246.0433,-616.7396 246.0433,-625.4714 246.0433,-634.6714"/>
<polygon fill="#000000" stroke="#000000" points="242.5434,-634.7878 246.0433,-644.7878 249.5434,-634.7878 242.5434,-634.7878"/>
</g>
<!-- &#45;2637589782584051388 -->
<g id="node20" class="node">
<title>&#45;2637589782584051388</title>
<ellipse fill="none" stroke="#000000" cx="398.0433" cy="-702.9164" rx="57.6901" ry="57.6901"/>
<text text-anchor="middle" x="398.0433" y="-699.2164" font-family="Times,serif" font-size="14.00" fill="#000000">filter&#45;lambda</text>
</g>
<!-- &#45;2637589782584051388&#45;&gt;796969776619960205 -->
<g id="edge19" class="edge">
<title>&#45;2637589782584051388&#45;&gt;796969776619960205</title>
<path fill="none" stroke="#000000" d="M391.3528,-760.477C390.3092,-769.4557 389.2721,-778.3781 388.3494,-786.3173"/>
<polygon fill="#000000" stroke="#000000" points="384.85,-786.1096 387.172,-796.4469 391.8032,-786.9179 384.85,-786.1096"/>
</g>
<!-- 5740511739495803556 -->
<g id="node21" class="node">
<title>5740511739495803556</title>
<polygon fill="none" stroke="#000000" points="434.0433,-609.0715 380.0433,-609.0715 380.0433,-573.0715 434.0433,-573.0715 434.0433,-609.0715"/>
<text text-anchor="middle" x="407.0433" y="-587.3715" font-family="Times,serif" font-size="14.00" fill="#000000">2</text>
</g>
<!-- 5740511739495803556&#45;&gt;&#45;2637589782584051388 -->
<g id="edge20" class="edge">
<title>5740511739495803556&#45;&gt;&#45;2637589782584051388</title>
<path fill="none" stroke="#000000" d="M405.5571,-609.5404C404.9778,-616.7396 404.2751,-625.4714 403.5348,-634.6714"/>
<polygon fill="#000000" stroke="#000000" points="400.0342,-634.5393 402.7208,-644.7878 407.0117,-635.1008 400.0342,-634.5393"/>
</g>
<!-- &#45;5951725068597983445 -->
<g id="node22" class="node">
<title>&#45;5951725068597983445</title>
<ellipse fill="none" stroke="#000000" cx="76.0433" cy="-461.0283" rx="76.0865" ry="76.0865"/>
<text text-anchor="middle" x="76.0433" y="-457.3283" font-family="Times,serif" font-size="14.00" fill="#000000">bag&#45;from&#45;delayed</text>
</g>
<!-- &#45;5951725068597983445&#45;&gt;5740511739497968606 -->
<g id="edge21" class="edge">
<title>&#45;5951725068597983445&#45;&gt;5740511739497968606</title>
<path fill="none" stroke="#000000" d="M86.5139,-536.675C87.7901,-545.8945 89.0256,-554.8211 90.1143,-562.6861"/>
<polygon fill="#000000" stroke="#000000" points="86.6596,-563.2553 91.4977,-572.6809 93.5935,-562.2954 86.6596,-563.2553"/>
</g>
<!-- &#45;5724301301430761342 -->
<g id="node23" class="node">
<title>&#45;5724301301430761342</title>
<polygon fill="none" stroke="#000000" points="103.0433,-348.985 49.0433,-348.985 49.0433,-312.985 103.0433,-312.985 103.0433,-348.985"/>
</g>
<!-- &#45;5724301301430761342&#45;&gt;&#45;5951725068597983445 -->
<g id="edge22" class="edge">
<title>&#45;5724301301430761342&#45;&gt;&#45;5951725068597983445</title>
<path fill="none" stroke="#000000" d="M76.0433,-349.067C76.0433,-356.2668 76.0433,-365.1107 76.0433,-374.6439"/>
<polygon fill="#000000" stroke="#000000" points="72.5434,-374.7879 76.0433,-384.7879 79.5434,-374.788 72.5434,-374.7879"/>
</g>
<!-- &#45;40984589518547104 -->
<g id="node24" class="node">
<title>&#45;40984589518547104</title>
<ellipse fill="none" stroke="#000000" cx="246.0433" cy="-461.0283" rx="76.0865" ry="76.0865"/>
<text text-anchor="middle" x="246.0433" y="-457.3283" font-family="Times,serif" font-size="14.00" fill="#000000">bag&#45;from&#45;delayed</text>
</g>
<!-- &#45;40984589518547104&#45;&gt;5740511739496886081 -->
<g id="edge23" class="edge">
<title>&#45;40984589518547104&#45;&gt;5740511739496886081</title>
<path fill="none" stroke="#000000" d="M246.0433,-537.4271C246.0433,-546.4458 246.0433,-555.163 246.0433,-562.8555"/>
<polygon fill="#000000" stroke="#000000" points="242.5434,-562.9724 246.0433,-572.9725 249.5434,-562.9725 242.5434,-562.9724"/>
</g>
<!-- 5060104156908807766 -->
<g id="node25" class="node">
<title>5060104156908807766</title>
<polygon fill="none" stroke="#000000" points="273.0433,-348.985 219.0433,-348.985 219.0433,-312.985 273.0433,-312.985 273.0433,-348.985"/>
</g>
<!-- 5060104156908807766&#45;&gt;&#45;40984589518547104 -->
<g id="edge24" class="edge">
<title>5060104156908807766&#45;&gt;&#45;40984589518547104</title>
<path fill="none" stroke="#000000" d="M246.0433,-349.067C246.0433,-356.2668 246.0433,-365.1107 246.0433,-374.6439"/>
<polygon fill="#000000" stroke="#000000" points="242.5434,-374.7879 246.0433,-384.7879 249.5434,-374.788 242.5434,-374.7879"/>
</g>
<!-- 757686880653427321 -->
<g id="node26" class="node">
<title>757686880653427321</title>
<ellipse fill="none" stroke="#000000" cx="416.0433" cy="-461.0283" rx="76.0865" ry="76.0865"/>
<text text-anchor="middle" x="416.0433" y="-457.3283" font-family="Times,serif" font-size="14.00" fill="#000000">bag&#45;from&#45;delayed</text>
</g>
<!-- 757686880653427321&#45;&gt;5740511739495803556 -->
<g id="edge25" class="edge">
<title>757686880653427321&#45;&gt;5740511739495803556</title>
<path fill="none" stroke="#000000" d="M410.7819,-537.0512C410.1544,-546.118 409.5472,-554.8909 409.0112,-562.6368"/>
<polygon fill="#000000" stroke="#000000" points="405.5048,-562.6091 408.3059,-572.8269 412.4881,-563.0925 405.5048,-562.6091"/>
</g>
<!-- 185128668759836431 -->
<g id="node27" class="node">
<title>185128668759836431</title>
<polygon fill="none" stroke="#000000" points="443.0433,-348.985 389.0433,-348.985 389.0433,-312.985 443.0433,-312.985 443.0433,-348.985"/>
</g>
<!-- 185128668759836431&#45;&gt;757686880653427321 -->
<g id="edge26" class="edge">
<title>185128668759836431&#45;&gt;757686880653427321</title>
<path fill="none" stroke="#000000" d="M416.0433,-349.067C416.0433,-356.2668 416.0433,-365.1107 416.0433,-374.6439"/>
<polygon fill="#000000" stroke="#000000" points="412.5434,-374.7879 416.0433,-384.7879 419.5434,-374.788 412.5434,-374.7879"/>
</g>
<!-- &#45;3840766352831340617 -->
<g id="node28" class="node">
<title>&#45;3840766352831340617</title>
<ellipse fill="none" stroke="#000000" cx="76.0433" cy="-254.887" rx="22.1965" ry="22.1965"/>
<text text-anchor="middle" x="76.0433" y="-251.187" font-family="Times,serif" font-size="14.00" fill="#000000">list</text>
</g>
<!-- &#45;3840766352831340617&#45;&gt;&#45;5724301301430761342 -->
<g id="edge27" class="edge">
<title>&#45;3840766352831340617&#45;&gt;&#45;5724301301430761342</title>
<path fill="none" stroke="#000000" d="M76.0433,-277.3073C76.0433,-285.1988 76.0433,-294.176 76.0433,-302.5001"/>
<polygon fill="#000000" stroke="#000000" points="72.5434,-302.5638 76.0433,-312.5638 79.5434,-302.5638 72.5434,-302.5638"/>
</g>
<!-- &#45;1424212737695027287 -->
<g id="node29" class="node">
<title>&#45;1424212737695027287</title>
<polygon fill="none" stroke="#000000" points="103.0433,-196.7889 49.0433,-196.7889 49.0433,-160.7889 103.0433,-160.7889 103.0433,-196.7889"/>
</g>
<!-- &#45;1424212737695027287&#45;&gt;&#45;3840766352831340617 -->
<g id="edge28" class="edge">
<title>&#45;1424212737695027287&#45;&gt;&#45;3840766352831340617</title>
<path fill="none" stroke="#000000" d="M76.0433,-196.8231C76.0433,-204.5311 76.0433,-213.7711 76.0433,-222.5892"/>
<polygon fill="#000000" stroke="#000000" points="72.5434,-222.63 76.0433,-232.6301 79.5434,-222.6301 72.5434,-222.63"/>
</g>
<!-- &#45;1191512654704587512 -->
<g id="node30" class="node">
<title>&#45;1191512654704587512</title>
<ellipse fill="none" stroke="#000000" cx="76.0433" cy="-62.3945" rx="62.2891" ry="62.2891"/>
<text text-anchor="middle" x="76.0433" y="-58.6945" font-family="Times,serif" font-size="14.00" fill="#000000">file_to_blocks</text>
</g>
<!-- &#45;1191512654704587512&#45;&gt;&#45;1424212737695027287 -->
<g id="edge29" class="edge">
<title>&#45;1191512654704587512&#45;&gt;&#45;1424212737695027287</title>
<path fill="none" stroke="#000000" d="M76.0433,-125.0209C76.0433,-133.7983 76.0433,-142.4406 76.0433,-150.1429"/>
<polygon fill="#000000" stroke="#000000" points="72.5434,-150.3217 76.0433,-160.3218 79.5434,-150.3218 72.5434,-150.3217"/>
</g>
<!-- &#45;1108230574421845661 -->
<g id="node31" class="node">
<title>&#45;1108230574421845661</title>
<ellipse fill="none" stroke="#000000" cx="246.0433" cy="-254.887" rx="22.1965" ry="22.1965"/>
<text text-anchor="middle" x="246.0433" y="-251.187" font-family="Times,serif" font-size="14.00" fill="#000000">list</text>
</g>
<!-- &#45;1108230574421845661&#45;&gt;5060104156908807766 -->
<g id="edge30" class="edge">
<title>&#45;1108230574421845661&#45;&gt;5060104156908807766</title>
<path fill="none" stroke="#000000" d="M246.0433,-277.3073C246.0433,-285.1988 246.0433,-294.176 246.0433,-302.5001"/>
<polygon fill="#000000" stroke="#000000" points="242.5434,-302.5638 246.0433,-312.5638 249.5434,-302.5638 242.5434,-302.5638"/>
</g>
<!-- &#45;5255126375516277096 -->
<g id="node32" class="node">
<title>&#45;5255126375516277096</title>
<polygon fill="none" stroke="#000000" points="273.0433,-196.7889 219.0433,-196.7889 219.0433,-160.7889 273.0433,-160.7889 273.0433,-196.7889"/>
</g>
<!-- &#45;5255126375516277096&#45;&gt;&#45;1108230574421845661 -->
<g id="edge31" class="edge">
<title>&#45;5255126375516277096&#45;&gt;&#45;1108230574421845661</title>
<path fill="none" stroke="#000000" d="M246.0433,-196.8231C246.0433,-204.5311 246.0433,-213.7711 246.0433,-222.5892"/>
<polygon fill="#000000" stroke="#000000" points="242.5434,-222.63 246.0433,-232.6301 249.5434,-222.6301 242.5434,-222.63"/>
</g>
<!-- 3117173352462720213 -->
<g id="node33" class="node">
<title>3117173352462720213</title>
<ellipse fill="none" stroke="#000000" cx="246.0433" cy="-62.3945" rx="62.2891" ry="62.2891"/>
<text text-anchor="middle" x="246.0433" y="-58.6945" font-family="Times,serif" font-size="14.00" fill="#000000">file_to_blocks</text>
</g>
<!-- 3117173352462720213&#45;&gt;&#45;5255126375516277096 -->
<g id="edge32" class="edge">
<title>3117173352462720213&#45;&gt;&#45;5255126375516277096</title>
<path fill="none" stroke="#000000" d="M246.0433,-125.0209C246.0433,-133.7983 246.0433,-142.4406 246.0433,-150.1429"/>
<polygon fill="#000000" stroke="#000000" points="242.5434,-150.3217 246.0433,-160.3218 249.5434,-150.3218 242.5434,-150.3217"/>
</g>
<!-- &#45;6604905819739090842 -->
<g id="node34" class="node">
<title>&#45;6604905819739090842</title>
<ellipse fill="none" stroke="#000000" cx="416.0433" cy="-254.887" rx="22.1965" ry="22.1965"/>
<text text-anchor="middle" x="416.0433" y="-251.187" font-family="Times,serif" font-size="14.00" fill="#000000">list</text>
</g>
<!-- &#45;6604905819739090842&#45;&gt;185128668759836431 -->
<g id="edge33" class="edge">
<title>&#45;6604905819739090842&#45;&gt;185128668759836431</title>
<path fill="none" stroke="#000000" d="M416.0433,-277.3073C416.0433,-285.1988 416.0433,-294.176 416.0433,-302.5001"/>
<polygon fill="#000000" stroke="#000000" points="412.5434,-302.5638 416.0433,-312.5638 419.5434,-302.5638 412.5434,-302.5638"/>
</g>
<!-- &#45;2785969008072155025 -->
<g id="node35" class="node">
<title>&#45;2785969008072155025</title>
<polygon fill="none" stroke="#000000" points="443.0433,-196.7889 389.0433,-196.7889 389.0433,-160.7889 443.0433,-160.7889 443.0433,-196.7889"/>
</g>
<!-- &#45;2785969008072155025&#45;&gt;&#45;6604905819739090842 -->
<g id="edge34" class="edge">
<title>&#45;2785969008072155025&#45;&gt;&#45;6604905819739090842</title>
<path fill="none" stroke="#000000" d="M416.0433,-196.8231C416.0433,-204.5311 416.0433,-213.7711 416.0433,-222.5892"/>
<polygon fill="#000000" stroke="#000000" points="412.5434,-222.63 416.0433,-232.6301 419.5434,-222.6301 412.5434,-222.63"/>
</g>
<!-- 5039945974099022534 -->
<g id="node36" class="node">
<title>5039945974099022534</title>
<ellipse fill="none" stroke="#000000" cx="416.0433" cy="-62.3945" rx="62.2891" ry="62.2891"/>
<text text-anchor="middle" x="416.0433" y="-58.6945" font-family="Times,serif" font-size="14.00" fill="#000000">file_to_blocks</text>
</g>
<!-- 5039945974099022534&#45;&gt;&#45;2785969008072155025 -->
<g id="edge35" class="edge">
<title>5039945974099022534&#45;&gt;&#45;2785969008072155025</title>
<path fill="none" stroke="#000000" d="M416.0433,-125.0209C416.0433,-133.7983 416.0433,-142.4406 416.0433,-150.1429"/>
<polygon fill="#000000" stroke="#000000" points="412.5434,-150.3217 416.0433,-160.3218 419.5434,-150.3218 412.5434,-150.3217"/>
</g>
</g>
</svg>
